<?xml version="1.0" encoding="UTF-8" standalone="no"?>
<!-- Created with Inkscape (http://www.inkscape.org/) -->

<svg
   width="210mm"
   height="297mm"
   viewBox="0 0 210 297"
   version="1.1"
   id="svg5"
   inkscape:version="1.1.2 (b8e25be833, 2022-02-05)"
   sodipodi:docname="logo.svg"
   xmlns:inkscape="http://www.inkscape.org/namespaces/inkscape"
   xmlns:sodipodi="http://sodipodi.sourceforge.net/DTD/sodipodi-0.dtd"
   xmlns:xlink="http://www.w3.org/1999/xlink"
   xmlns="http://www.w3.org/2000/svg"
   xmlns:svg="http://www.w3.org/2000/svg">
  <sodipodi:namedview
     id="namedview7"
     pagecolor="#505050"
     bordercolor="#ffffff"
     borderopacity="1"
     inkscape:pageshadow="0"
     inkscape:pageopacity="0"
     inkscape:pagecheckerboard="1"
     inkscape:document-units="mm"
     showgrid="false"
     inkscape:snap-global="true"
     inkscape:zoom="0.635"
     inkscape:cx="355.11811"
     inkscape:cy="836.22047"
     inkscape:window-width="1920"
     inkscape:window-height="1009"
     inkscape:window-x="-1928"
     inkscape:window-y="-410"
     inkscape:window-maximized="1"
     inkscape:current-layer="layer1" />
  <defs
     id="defs2">
    <linearGradient
       inkscape:collect="always"
       id="linearGradient2501">
      <stop
         style="stop-color:#6600ff;stop-opacity:1"
         offset="0"
         id="stop2497" />
      <stop
         style="stop-color:#00ff66;stop-opacity:1"
         offset="1"
         id="stop2499" />
    </linearGradient>
    <clipPath
       clipPathUnits="userSpaceOnUse"
       id="clipPath2439">
      <rect
         style="fill:#ff0000;fill-opacity:1;stroke:none;stroke-width:23.6651;stroke-miterlimit:4;stroke-dasharray:none;stroke-opacity:1"
         id="rect2441"
         width="66.471504"
         height="91.563393"
         x="-161.99678"
         y="30.374392" />
    </clipPath>
    <clipPath
       clipPathUnits="userSpaceOnUse"
       id="clipPath2565">
      <rect
         style="fill:#000000;fill-opacity:1;stroke:none;stroke-width:13.2292;stroke-miterlimit:4;stroke-dasharray:none;stroke-opacity:1"
         id="rect2567"
         width="49.303368"
         height="24.651684"
         x="-96.845886"
         y="2.2010429" />
    </clipPath>
    <clipPath
       clipPathUnits="userSpaceOnUse"
       id="clipPath2798">
      <rect
         style="fill:#ffffff;fill-opacity:1;stroke:none;stroke-width:13.2292;stroke-miterlimit:4;stroke-dasharray:none;stroke-opacity:1"
         id="rect2800"
         width="53.693668"
         height="45.842239"
         x="-155.02238"
         y="26.143148" />
    </clipPath>
    <clipPath
       clipPathUnits="userSpaceOnUse"
       id="clipPath2946">
      <rect
         style="fill:#ffffff;fill-opacity:1;stroke:none;stroke-width:13.2292;stroke-miterlimit:4;stroke-dasharray:none;stroke-opacity:1"
         id="rect2948"
         width="85.453262"
         height="105.8671"
         x="-125.80619"
         y="55.544617" />
    </clipPath>
    <clipPath
       clipPathUnits="userSpaceOnUse"
       id="clipPath5135">
      <rect
         style="fill:#000000;fill-opacity:1;stroke:none;stroke-width:10.4986;stroke-miterlimit:4;stroke-dasharray:none;stroke-opacity:1"
         id="rect5137"
         width="36.012447"
         height="47.609673"
         x="-102.29375"
         y="64.64624" />
    </clipPath>
    <clipPath
       clipPathUnits="userSpaceOnUse"
       id="clipPath2946-3">
      <rect
         style="fill:#ffffff;fill-opacity:1;stroke:none;stroke-width:13.2292;stroke-miterlimit:4;stroke-dasharray:none;stroke-opacity:1"
         id="rect2948-4"
         width="85.453262"
         height="105.8671"
         x="-125.80619"
         y="55.544617" />
    </clipPath>
    <clipPath
       clipPathUnits="userSpaceOnUse"
       id="clipPath5135-0">
      <rect
         style="fill:#000000;fill-opacity:1;stroke:none;stroke-width:10.4986;stroke-miterlimit:4;stroke-dasharray:none;stroke-opacity:1"
         id="rect5137-0"
         width="36.012447"
         height="47.609673"
         x="-102.29375"
         y="64.64624" />
    </clipPath>
    <clipPath
       clipPathUnits="userSpaceOnUse"
       id="clipPath5135-0-8">
      <rect
         style="fill:#000000;fill-opacity:1;stroke:none;stroke-width:10.4986;stroke-miterlimit:4;stroke-dasharray:none;stroke-opacity:1"
         id="rect5137-0-2"
         width="36.012447"
         height="47.609673"
         x="-102.29375"
         y="64.64624" />
    </clipPath>
    <linearGradient
       inkscape:collect="always"
       xlink:href="#linearGradient2501"
       id="linearGradient2503"
       x1="299.84531"
       y1="201.00769"
       x2="392.63562"
       y2="48.055103"
       gradientUnits="userSpaceOnUse" />
  </defs>
  <g
     inkscape:label="Layer 1"
     inkscape:groupmode="layer"
     id="layer1">
    <g
       id="g6152"
       inkscape:export-filename="C:\Users\Fireworks\Documents\Pilot Proj\Aerometre\logo.png"
       inkscape:export-xdpi="96"
       inkscape:export-ydpi="96"
       transform="translate(517.0538,-217.77389)">
      <path
         style="fill:none;fill-rule:evenodd;stroke:#333333;stroke-width:13.2292;stroke-miterlimit:4;stroke-dasharray:none;stroke-opacity:1"
         id="path846"
         sodipodi:type="arc"
         sodipodi:cx="108.64984"
         sodipodi:cy="155.5692"
         sodipodi:rx="83.406319"
         sodipodi:ry="83.956558"
         sodipodi:start="0"
         sodipodi:end="3.1415927"
         sodipodi:arc-type="arc"
         sodipodi:open="true"
         d="m 192.05616,155.5692 a 83.406319,83.956558 0 0 1 -41.70316,72.70851 83.406319,83.956558 0 0 1 -83.40632,0 83.406319,83.956558 0 0 1 -41.703157,-72.70851" />
      <path
         style="fill:none;fill-rule:evenodd;stroke:#cccccc;stroke-width:13.2292;stroke-miterlimit:4;stroke-dasharray:none;stroke-opacity:1"
         id="path846-5"
         sodipodi:type="arc"
         sodipodi:cx="-111.69041"
         sodipodi:cy="-155.75926"
         sodipodi:rx="86.133575"
         sodipodi:ry="83.810471"
         sodipodi:start="0"
         sodipodi:end="0.62831853"
         sodipodi:arc-type="arc"
         transform="scale(-1)"
         sodipodi:open="true"
         d="M -25.556831,-155.75926 A 86.133575,83.810471 0 0 1 -42.00688,-106.4967" />
      <path
         style="fill:none;fill-rule:evenodd;stroke:#666666;stroke-width:13.2292;stroke-miterlimit:4;stroke-dasharray:none;stroke-opacity:1"
         id="path846-5-2"
         sodipodi:type="arc"
         sodipodi:cx="105.85462"
         sodipodi:cy="-155.77112"
         sodipodi:rx="86.133575"
         sodipodi:ry="83.810471"
         sodipodi:start="0"
         sodipodi:end="0.62831853"
         sodipodi:arc-type="arc"
         transform="scale(1,-1)"
         sodipodi:open="true"
         d="m 191.9882,-155.77112 a 86.133575,83.810471 0 0 1 -16.45005,49.26256" />
      <path
         style="fill:none;fill-rule:evenodd;stroke:#b3b3b3;stroke-width:13.2292;stroke-miterlimit:4;stroke-dasharray:none;stroke-opacity:1"
         id="path846-5-2-8"
         sodipodi:type="arc"
         sodipodi:cx="-182.78232"
         sodipodi:cy="-61.559109"
         sodipodi:rx="86.133575"
         sodipodi:ry="83.810471"
         sodipodi:start="0"
         sodipodi:end="0.62831853"
         sodipodi:arc-type="arc"
         transform="rotate(-144)"
         sodipodi:open="true"
         d="M -96.648743,-61.559109 A 86.133575,83.810471 0 0 1 -113.09879,-12.29655" />
      <path
         style="fill:none;fill-rule:evenodd;stroke:#808080;stroke-width:13.2292;stroke-miterlimit:4;stroke-dasharray:none;stroke-opacity:1"
         id="path846-5-2-8-3"
         sodipodi:type="arc"
         sodipodi:cx="-117.4773"
         sodipodi:cy="151.84175"
         sodipodi:rx="86.133575"
         sodipodi:ry="83.810471"
         sodipodi:start="0"
         sodipodi:end="0.62831853"
         sodipodi:arc-type="arc"
         transform="rotate(-72)"
         sodipodi:open="true"
         d="m -31.343727,151.84175 a 86.133575,83.810471 0 0 1 -16.450049,49.26256" />
      <path
         style="fill:none;fill-rule:evenodd;stroke:#999999;stroke-width:13.2292;stroke-miterlimit:4;stroke-dasharray:none;stroke-opacity:1"
         id="path846-5-2-8-4"
         sodipodi:type="arc"
         sodipodi:cx="-184.71483"
         sodipodi:cy="56.00246"
         sodipodi:rx="86.133575"
         sodipodi:ry="83.810471"
         sodipodi:start="0"
         sodipodi:end="0.62831853"
         sodipodi:arc-type="arc"
         transform="rotate(-108)"
         sodipodi:open="true"
         d="M -98.581253,56.00246 A 86.133575,83.810471 0 0 1 -115.0313,105.26502" />
      <path
         id="rect1621-2"
         style="fill:#ffffff;stroke-width:9.82675"
         d="m -84.43008,66.712412 v 0 0 l 6.95156,121.035998 h -15 z"
         sodipodi:nodetypes="cccccc"
         clip-path="url(#clipPath5135)"
         transform="matrix(1.3333333,0,0,1.3333333,221.03109,6.0402872)" />
      <path
         id="rect1621-2-7"
         style="fill:#000000;stroke-width:9.82675"
         d="m -84.43008,66.712412 v 0 0 l 6.95156,121.035998 h -15 z"
         sodipodi:nodetypes="cccccc"
         clip-path="url(#clipPath2946-3)"
         transform="matrix(1.3333333,0,0,1.3333333,221.03109,6.0402872)" />
      <path
         id="rect1621-2-8"
         style="fill:#ffffff;stroke-width:9.82675"
         d="m -84.43008,66.712412 v 0 0 l 6.95156,121.035998 h -15 z"
         sodipodi:nodetypes="cccccc"
         clip-path="url(#clipPath5135-0-8)"
         transform="matrix(1.3333333,0,0,1.3333333,221.03109,6.0402872)" />
    </g>
    <g
       id="g3159"
       inkscape:export-filename="C:\Users\Fireworks\Desktop\g3159.png"
       inkscape:export-xdpi="96"
       inkscape:export-ydpi="96"
       transform="translate(30.564757,-7.0044234)">
      <path
         id="path4471"
         style="fill:#ff6600;stroke-width:14.8217"
         d="m 407.93473,169.53536 c 0,43.8376 -35.5374,79.375 -79.375,79.375 -43.8376,0 -109.57835,-36.11823 -109.57835,-79.95583 0,-18.0227 20.47255,-22.71906 32.47228,-32.0703 23.70478,-18.47285 51.29117,-46.723872 77.10607,-46.723872 43.8376,0 79.375,35.537402 79.375,79.375002 z"
         sodipodi:nodetypes="sssass" />
      <path
         id="path1096"
         style="fill:#ff0066;stroke-width:62.5446"
         d="m 459.49187,156.84846 c -6.71753,21.89002 -38.77355,24.61879 -56.31415,39.33699 -28.88509,24.23729 -43.93217,68.75348 -79.89824,80.07758 -21.42041,6.74432 -48.44254,1.75766 -66.32499,-11.8268 -7.93838,-6.03041 -13.99627,-17.04211 -12.95365,-26.95658 3.37815,-32.1236 56.90839,-44.48197 59.22147,-76.69978 1.76676,-24.60835 -43.40436,-40.78835 -36.40115,-64.445232 9.26808,-31.307635 54.20199,-44.320869 86.83737,-45.31953 28.74573,-0.879635 59.00872,14.286592 78.78529,35.16668 17.34424,18.312032 34.44753,46.554422 27.04805,70.666672 z"
         sodipodi:nodetypes="aaaaaaaaaa" />
      <path
         id="rect3753"
         style="stroke-width:18.0493"
         d="m 309.00441,43.955601 h 75.02853 c 8.53293,0 15.4024,7.548947 15.4024,16.925889 v 139.44366 l -5.54551,5.37482 c -6.73332,6.52608 -5.72638,6.58568 -10.93022,13.34814 l -5.23096,6.79773 h -68.72424 c -8.53292,0 -15.40239,-7.54894 -15.40239,-16.92589 V 60.88149 c 0,-9.376942 6.86947,-16.925889 15.40239,-16.925889 z"
         sodipodi:nodetypes="ssscsscssss" />
      <circle
         style="fill:#ffffff;fill-opacity:1;stroke:none;stroke-width:16.775"
         id="path4018"
         cx="346.02271"
         cy="212.45955"
         r="6.1181035" />
      <path
         id="rect3753-8"
         style="fill:#333333;stroke-width:18.0493"
         d="m 308.7262,44.023878 h 75.02853 C 341.23551,153.79957 365.60881,105.70172 308.7262,225.91411 c -8.53292,0 -15.40239,-7.54894 -15.40239,-16.92589 V 60.949767 c 0,-9.376942 6.86947,-16.925889 15.40239,-16.925889 z"
         sodipodi:nodetypes="sccsss" />
      <rect
         style="fill:url(#linearGradient2503);fill-opacity:1;stroke:none;stroke-width:15.4979"
         id="rect3753-1"
         width="92.790306"
         height="152.95259"
         x="299.84531"
         y="48.055103"
         ry="14.233082" />
      <g
         id="g3682"
         transform="matrix(-0.35277777,0,0,-0.35277777,394.72397,247.07928)">
        <path
           d="m 163.087,281.876 44.452,-5.157 4.15,-10.133 c 5.986,-14.608 1.393,-31.417 -11.19,-40.951 l -36.548,4.471 -0.224,0.676 z"
           style="fill:#4f004f;fill-opacity:1;fill-rule:evenodd;stroke:none"
           id="path28" />
        <path
           d="m 125.231,294.722 -8.586,-12.654 -6.605,-2.927 c -9.274,-4.109 -15.505,-12.662 -16.476,-22.609 -0.969,-9.95 3.461,-19.879 11.713,-26.252 l 16.088,-31.179 c 5.467,-10.596 12.698,-20.295 21.391,-28.692 l 9.682,-33.327 52.626,20.38 0.106,58.961 -6.382,12.586 -0.159,13.959 c -0.122,10.782 -5.325,21.11 -14.13,28.037 -6.341,4.991 -8.89,7.154 -16.668,9.332 l -3.739,8.146 z"
           style="fill:#660066;fill-opacity:1;fill-rule:evenodd;stroke:none"
           id="path30" />
        <path
           d="m 184.757,180.719 58.567,52.198 c 7.35,6.553 17.797,9.457 27.973,7.78 10.178,-1.677 18.801,-7.724 23.092,-16.195 19.385,-23.596 35.07,-48.444 49.257,-73.055 -4.687,-9.557 -10.529,-16.196 -26.154,-15.911 l -11.388,8.781 c -14.281,11.012 -27.86,22.738 -40.672,35.125 l -23.735,-30.921 c -7.095,-10.211 -18.915,-17.015 -32.196,-18.527 -13.279,-1.514 -26.611,2.422 -36.311,10.72 z"
           style="fill:#fabe82;fill-opacity:1;fill-rule:evenodd;stroke:none"
           id="path32" />
        <path
           d="m 160.807,185.419 88.747,-10.868 c 10.049,-1.23 17.967,-9.149 19.197,-19.197 3.594,-29.343 1.02,-68.453 -4.974,-97.401 l -26.803,-5.07 -5.434,11.953 c -9.231,20.309 -13.337,42.574 -11.954,64.84 h -70.273 c -9.221,19.358 -4.313,42.826 11.494,55.743"
           style="fill:#ffcc99;fill-opacity:1;fill-rule:evenodd;stroke:none"
           id="path34" />
        <path
           d="m 101.352,241.163 -1.351,-15.334 c -1.623,-18.41 3.236,-36.809 13.736,-52.018 l 5.18,-1.801 c 22.839,-7.945 48.131,-4.104 67.583,10.263 l 18.68,-2.288 c -0.058,9.813 -12.696,15.301 -23.663,16.344 l -19.816,1.126 -4.054,2.027 c -6.105,3.052 -12.773,4.817 -19.591,5.178 l 0.902,5.856 c 1.364,8.875 1.439,17.901 0.224,26.797 l -7.205,3.85 c -9.568,5.114 -21.057,5.114 -30.625,0"
           style="fill:#ff6633;fill-opacity:1;fill-rule:evenodd;stroke:none"
           id="path36" />
        <path
           d="m 205.17,272.216 22.957,-5.63 6.307,1.576 c 17.833,4.459 36.685,-1.049 49.314,-14.406 l 19.365,-16.894 -8.722,-12.36 -19.2,4.929 h -9.006 c -12.706,0 -25.274,2.606 -36.93,7.657 l -4.054,-1.126 c -6.561,-1.823 -13.503,-1.745 -20.021,0.226 -4.777,11.267 -4.841,23.268 -0.01,36.028"
           style="fill:#ff6633;fill-opacity:1;fill-rule:evenodd;stroke:none"
           id="path38" />
        <path
           d="M 140.195,329.639 170.29,316.042 158.409,277.25 128.314,290.847 Z"
           style="fill:#f55b27;fill-opacity:1;fill-rule:evenodd;stroke:none"
           id="path40" />
        <path
           d="m 128.314,349.964 h 51.204 l 6.383,-36.395 c 2.471,-14.081 -7.03,-25.602 -21.11,-25.602 -14.083,0 -27.624,11.521 -30.094,25.602 z"
           style="fill:#ff6633;fill-opacity:1;fill-rule:evenodd;stroke:none"
           id="path42" />
        <path
           d="m 177.962,304.115 c 0.342,-3.929 -2.438,-7.036 -6.452,-7.036 -4.016,0 -7.886,3.107 -8.922,7.036 z"
           style="fill:#ffffff;fill-opacity:1;fill-rule:evenodd;stroke:none"
           id="path44" />
        <path
           d="m 287.174,231.022 -0.991,-7.424 c -0.526,-3.946 0.544,-7.935 2.97,-11.088 1.818,-2.363 2.538,-5.388 1.98,-8.316 -0.123,-0.645 0.201,-1.295 0.792,-1.583 1.661,-0.813 3.653,-0.498 4.983,0.787 1.33,1.286 1.712,3.265 0.957,4.954 -0.6,1.338 -0.705,2.848 -0.297,4.256 0.359,1.244 0.928,2.415 1.682,3.466 0.531,0.739 1.418,1.139 2.324,1.046 0.905,-0.093 1.692,-0.663 2.061,-1.495 2.196,-4.938 2.004,-10.611 -0.522,-15.39 -0.787,-1.491 -0.435,-3.326 0.847,-4.42 1.282,-1.09 3.15,-1.147 4.496,-0.134 5.3,3.99 8.763,9.952 9.604,16.532 0.272,2.135 0.306,4.294 0.098,6.435 -0.2,2.067 -1.068,4.015 -2.474,5.543 l -12.571,12.671 -14.059,-0.197 z"
           style="fill:#ff6633;fill-opacity:1;fill-rule:evenodd;stroke:none"
           id="path46" />
        <path
           d="m 236.974,52.883 c 9.342,10.466 18.676,20.728 26.803,5.07 9.445,-22.065 19.818,-36.505 17.356,-42.835 -2.971,-7.64 -20.737,-3.968 -30.285,5.658 -6.283,6.336 -6.439,23.774 -13.874,32.107"
           style="fill:#660066;fill-opacity:1;fill-rule:evenodd;stroke:none"
           id="path48" />
        <path
           d="m 312.716,139.221 c 0,-5.863 2.837,-10.494 8.077,-10.037 4.64,0.405 49.603,-2.826 52.229,2.688 3.078,6.465 -27.424,13.091 -34.153,23.259 -7.03,9.671 -17.436,-10.608 -26.153,-15.91"
           style="fill:#660066;fill-opacity:1;fill-rule:evenodd;stroke:none"
           id="path50" />
        <path
           d="m 182.709,331.767 1.172,12.282 c 0.813,8.534 -3.547,16.731 -11.078,20.826 -7.531,4.095 -16.781,3.299 -23.501,-2.023 -8.364,0 -18.314,2.536 -23.156,-5.85 -15.349,-5.493 4.755,-42.124 7.007,-50.531 l 9.644,9.643 0.868,11.224 h 6.495 l -1.182,9.73 16.213,-0.563 c 5.57,-0.222 11.104,0.996 16.066,3.538 z"
           style="fill:#1a1a1a;fill-opacity:1;fill-rule:evenodd;stroke:none"
           id="path52" />
        <path
           d="m 139.57,331.46 c 3.23,0.654 6.76,-3.312 7.881,-8.858 1.123,-5.546 -0.586,-10.572 -3.816,-11.226 -3.23,-0.653 -6.758,3.312 -7.881,8.858 -1.123,5.547 0.586,10.573 3.816,11.226"
           style="fill:#ff6633;fill-opacity:1;fill-rule:evenodd;stroke:none"
           id="path54" />
        <path
           d="m 165.079,331.531 -9.121,-0.993 c -1.081,-0.117 -1.964,-0.912 -2.199,-1.974 -0.233,-1.061 0.237,-2.153 1.169,-2.713 0.931,-0.561 2.116,-0.464 2.945,0.24 l 7.796,0.563 c 2.769,0.2 3.074,5.276 -0.59,4.877"
           style="fill:#1a1a1a;fill-opacity:1;fill-rule:evenodd;stroke:none"
           id="path56" />
        <path
           d="m 162.293,324.782 v 0 c 1.532,0 2.787,-1.254 2.787,-2.787 v -1.153 c 0,-1.534 -1.255,-2.788 -2.787,-2.788 -1.533,0 -2.788,1.254 -2.788,2.788 v 1.153 c 0,1.533 1.255,2.787 2.788,2.787"
           style="fill:#1a1a1a;fill-opacity:1;fill-rule:evenodd;stroke:none"
           id="path58" />
        <path
           d="m 176.111,331.531 6.062,-0.993 c 0.72,-0.117 1.307,-0.912 1.462,-1.974 0.157,-1.061 -0.156,-2.153 -0.776,-2.713 -0.619,-0.561 -1.408,-0.464 -1.958,0.24 l -5.183,0.563 c -1.84,0.2 -2.042,5.276 0.393,4.877"
           style="fill:#1a1a1a;fill-opacity:1;fill-rule:evenodd;stroke:none"
           id="path60" />
        <path
           d="m 177.962,324.782 v 0 c -1.017,0 -1.852,-1.254 -1.852,-2.787 v -1.153 c 0,-1.534 0.835,-2.788 1.852,-2.788 1.02,0 1.854,1.254 1.854,2.788 v 1.153 c 0,1.533 -0.834,2.787 -1.854,2.787"
           style="fill:#1a1a1a;fill-opacity:1;fill-rule:evenodd;stroke:none"
           id="path62" />
        <path
           d="m 174.321,310.596 c 2.586,0 3.614,1.478 3.614,0.489 0,-0.989 -2.941,-4.24 -5.527,-4.24 -2.586,0 -3.838,3.251 -3.838,4.24 0,0.989 3.167,-0.489 5.751,-0.489"
           style="fill:#e34916;fill-opacity:1;fill-rule:evenodd;stroke:none"
           id="path64" />
      </g>
      <g
         id="g2874">
        <path
           d="M 376.02341,36.658754 374.8544,31.80002 c -0.6591,-2.740122 0.41842,-5.605538 2.72031,-7.231721 2.30189,-1.625891 5.36252,-1.684458 7.72473,-0.147145 2.3622,1.53702 3.54841,4.358728 2.9945,7.12187 z"
           style="fill:#55d400;fill-opacity:1;fill-rule:evenodd;stroke:none;stroke-width:0.291379"
           id="path72" />
        <path
           d="m 373.6143,4.7201849 h 11.69068 l 2.0749,22.0104331 h -11.69039 z"
           style="fill:#55d400;fill-opacity:1;fill-rule:evenodd;stroke:none;stroke-width:0.291379"
           id="path76" />
        <path
           d="m 356.85479,6.0054559 c 4.95489,0 8.9966,-4.04171 8.9966,-8.996891 0,-4.955473 -4.04171,-8.9971819 -8.9966,-8.9971819 -4.95548,0 -8.99689,4.0417089 -8.99689,8.9971819 0,4.955181 4.04141,8.996891 8.99689,8.996891"
           style="fill:#66ff00;fill-opacity:1;fill-rule:evenodd;stroke:none;stroke-width:0.291379"
           id="path78" />
        <path
           d="m 378.38299,14.57402 c 4.95547,0 8.99689,-4.04171 8.99689,-8.9971821 0,-4.95518103 -4.04142,-8.99689 -8.99689,-8.99689 -4.95547,0 -8.99689,4.04170897 -8.99689,8.99689 0,4.9554721 4.04142,8.9971821 8.99689,8.9971821"
           style="fill:#7fff2a;fill-opacity:1;fill-rule:evenodd;stroke:none;stroke-width:0.291379"
           id="path80" />
        <path
           d="m 379.56337,72.125333 -5.07028,5.8838 c -0.70922,0.82257 -1.02448,1.91436 -0.86306,2.98925 0.16113,1.07519 0.78293,2.02596 1.70281,2.60493 l 3.39078,1.49302 3.63931,5.81679 c 1.09441,1.74856 3.00703,2.81705 5.07028,2.83074 l 3.73284,-0.0318 c 0.66697,-0.005 1.28906,-0.33887 1.66203,-0.89219 0.37267,-0.55334 0.44959,-1.25498 0.20425,-1.8759 l -7.55864,-20.15668 z"
           style="fill:#332d2a;fill-opacity:1;fill-rule:evenodd;stroke:none;stroke-width:0.291379"
           id="path82" />
        <path
           d="m 384.34634,2.4177129 -2.63231,11.5193541 c -1.50963,3.213613 -4.55657,5.433624 -8.07847,5.884969 l -3.21361,9.68163 v 18.636272 h -14.13768 l -8.42695,-41.0636671 1.764,-10.496323 8.45464,-7.1422679 15.45267,1.2514696 z"
           style="fill:#66ff00;fill-opacity:1;fill-rule:evenodd;stroke:none;stroke-width:0.291379"
           id="path84" />
        <path
           d="m 364.89042,-10.010449 8.63821,0.6995986 4.16059,4.5114123 c -1.02303,2.535575 -3.50644,4.32492895 -6.40799,4.32492895 -3.8156,0 -6.90888,-3.09327295 -6.90888,-6.90858095 0,-0.930371 0.18445,-1.817328 0.51807,-2.6273589"
           style="fill:#f29d72;fill-opacity:1;fill-rule:evenodd;stroke:none;stroke-width:0.291379"
           id="path86" />
        <path
           d="m 385.04186,31.056714 h 2.4636 c 2.05423,0 4.02103,0.830719 5.45344,2.302763 1.43242,1.472918 2.20807,3.462158 2.15125,5.515793 -0.0565,2.038775 -0.47378,4.051034 -1.23194,5.944119 l 0.0536,5.516376 c 0.09,9.275743 -2.19612,18.420658 -6.64081,26.562348 -0.69348,1.27128 -2.01342,2.07461 -3.46098,2.10812 -1.44787,0.0326 -2.80336,-0.7095 -3.55453,-1.94728 -4.31881,-7.11779 -5.50122,-15.704425 -3.26636,-23.72403 0.54197,-1.946701 1.55392,-3.729935 2.94526,-5.194985 h -24.42012 l 3.46711,-13.613782 c 5.62972,0.714169 9.93338,-0.309444 11.42057,-5.02249 z"
           style="fill:#0055d4;fill-opacity:1;fill-rule:evenodd;stroke:none;stroke-width:0.291379"
           id="path88" />
        <path
           d="m 357.56925,42.368315 5.61981,11.691556 c 0.66814,1.390164 0.97845,2.925151 0.90299,4.465375 l -0.15065,3.46274 c -0.0504,1.16377 -0.67891,2.225262 -1.67455,2.829869 -0.99564,0.604607 -2.22759,0.6725 -3.28384,0.180074 L 352.1499,60.68349 c -1.70514,-1.077227 -2.67776,-3.00645 -2.52945,-5.017831 V 43.121236 Z"
           style="fill:#4d4441;fill-opacity:1;fill-rule:evenodd;stroke:none;stroke-width:0.291379"
           id="path90" />
        <path
           d="m 354.30086,-9.5049084 5.2282,13.0694873 -14.86438,6.6574131 c -3.53587,1.583642 -7.60527,-0.06148 -9.04292,-3.6553411 -1.43796,-3.594445 0.27855,-7.830504 3.81443,-9.414145 z"
           style="fill:#66ff00;fill-opacity:1;fill-rule:evenodd;stroke:none;stroke-width:0.291379"
           id="path92" />
        <path
           d="m 359.60511,43.943797 -1.87793,-29.286734 c -0.32664,-5.0880501 -4.61777,-8.9479391 -9.59801,-8.6338341 -4.97994,0.314398 -8.77369,4.6847821 -8.48464,9.7748721 0.213,3.753828 0.51836,7.501245 0.91521,11.239339 0.82431,7.756492 4.17196,15.00657 9.50623,20.588506 1.54488,1.616858 3.8797,2.14571 5.94819,1.347334 2.06821,-0.79896 3.73518,-2.79024 3.59095,-5.029483"
           style="fill:#0066ff;fill-opacity:1;fill-rule:evenodd;stroke:none;stroke-width:0.291379"
           id="path94" />
        <path
           d="m 387.57044,76.379463 -0.4426,-1.18184 c -0.39453,-1.051 -1.2777,-1.84297 -2.3657,-2.12094 -1.08742,-0.27768 -2.24245,-0.006 -3.0924,0.72699 -0.4697,0.40531 -1.08597,0.59849 -1.7031,0.53322 -0.61686,-0.0644 -1.1798,-0.38112 -1.55538,-0.87471 l -1.66844,3.98255 8.40743,4.82028 0.16085,0.37442 z"
           style="fill:#332d2a;fill-opacity:1;fill-rule:evenodd;stroke:none;stroke-width:0.291379"
           id="path96" />
        <path
           d="m 367.13957,-21.693849 c -0.89395,0 -1.44202,1.165222 -1.22378,2.602301 0.21794,1.437369 1.12035,2.6023 2.01487,2.6023 0.89454,0 1.44262,-1.164931 1.22379,-2.6023 -0.21824,-1.437079 -1.12063,-2.602301 -2.01488,-2.602301 m 12.94915,0 c 0.89482,0 1.44261,1.165222 1.22437,2.602301 -0.21853,1.437369 -1.12064,2.6023 -2.01488,2.6023 -0.89453,0 -1.44232,-1.164931 -1.22437,-2.6023 0.21883,-1.437079 1.12093,-2.602301 2.01488,-2.602301"
           style="fill:#f29d72;fill-opacity:1;fill-rule:evenodd;stroke:none;stroke-width:0.291379"
           id="path98" />
        <path
           d="m 369.3861,-18.366308 h 8.30312 l -3.44671,12.7553809 h -8.3037 z"
           style="fill:#f29d72;fill-opacity:1;fill-rule:evenodd;stroke:none;stroke-width:0.291379"
           id="path100" />
        <path
           d="m 366.956,-25.992555 h 13.31687 v 9.323526 c 0,3.662044 -2.99653,6.65858 -6.65857,6.65858 -3.66205,0 -6.6583,-2.996536 -6.6583,-6.65858 z"
           style="fill:#f5b290;fill-opacity:1;fill-rule:evenodd;stroke:none;stroke-width:0.291379"
           id="path102" />
        <path
           d="m 376.23379,-13.514275 c -0.3042,1.162017 -1.3657,2.025372 -2.61949,2.025372 -1.25351,0 -2.31501,-0.863355 -2.61949,-2.025372 z"
           style="fill:#ffffff;fill-opacity:1;fill-rule:evenodd;stroke:none;stroke-width:0.291379"
           id="path104" />
        <path
           d="m 356.85479,0.66011887 h 4.14427 c 3.28297,0 6.2119,1.98778403 6.2119,7.80865003 0.0507,0.786721 -0.22523,1.5597491 -0.76195,2.1372601 -0.5373,0.577221 -1.2879,0.908518 -2.07666,0.91522 -1.61598,0.01398 -3.23168,-0.03963 -4.843,-0.160549 -1.595,-0.120049 -2.27188,-1.7896461 -2.06995,-3.5382091 l -1.09151,-2.91e-4 c -3.51576,0 -3.02887,-7.16208103 0.4869,-7.16208103"
           style="fill:#f29d72;fill-opacity:1;fill-rule:evenodd;stroke:none;stroke-width:0.291379"
           id="path106" />
        <path
           d="m 367.21096,8.4687689 h -3.40038 v 3.0122701 c 0,0.935324 0.76487,1.700192 1.70018,1.700192 0.93504,0 1.7002,-0.764868 1.7002,-1.700192 z"
           style="fill:#f29d72;fill-opacity:1;fill-rule:evenodd;stroke:none;stroke-width:0.291379"
           id="path108" />
        <path
           d="m 365.67947,5.0322519 -2.86512,1.832187 1.62327,2.537614 c 0.50409,0.7878871 1.56091,1.0204081 2.34881,0.516324 0.78788,-0.504085 1.02011,-1.560915 0.51603,-2.348802 z"
           style="fill:#f29d72;fill-opacity:1;fill-rule:evenodd;stroke:none;stroke-width:0.291379"
           id="path110" />
        <path
           d="m 380.27287,-19.422845 1.88347,-7.116335 c 0.22844,-0.863355 -0.0195,-1.783236 -0.65064,-2.414945 -0.63201,-0.631708 -1.55218,-0.87938 -2.41553,-0.650939 l -0.60578,-1.24943 c -0.35373,-0.729612 -0.9901,-1.283522 -1.76138,-1.533525 -0.77157,-0.250294 -1.6119,-0.174536 -2.32666,0.208918 l -7.87334,1.665228 c -0.68969,0.14598 -1.25437,0.638119 -1.49331,1.301004 -0.23864,0.663178 -0.1183,1.402405 0.31994,1.954567 l 1.60636,7.532714 0.70281,-4.088039 11.65864,-1.476414 z"
           style="fill:#000000;fill-opacity:1;fill-rule:evenodd;stroke:none;stroke-width:0.291379"
           id="path112" />
        <path
           d="m 375.45901,-22.214251 2.41291,0.368885 c 0.27681,0.04225 0.49067,0.263989 0.5236,0.541673 0.0326,0.277975 -0.12413,0.543421 -0.38345,0.648899 -0.25845,0.10548 -0.55624,0.02477 -0.7267,-0.19668 l -1.90183,-0.08508 c -0.23077,-0.01049 -0.43794,-0.144232 -0.54226,-0.350237 -0.10489,-0.205713 -0.09,-0.451927 0.0376,-0.643946 0.12851,-0.19231 0.35257,-0.318185 0.58014,-0.283511"
           style="fill:#000000;fill-opacity:1;fill-rule:evenodd;stroke:none;stroke-width:0.291379"
           id="path114" />
        <path
           d="m 376.21601,-20.442961 v 0 c 0.47349,0 0.86103,0.387533 0.86103,0.861314 v 0.318185 c 0,0.47349 -0.38754,0.860732 -0.86103,0.860732 -0.47378,0 -0.86131,-0.387242 -0.86131,-0.860732 v -0.318185 c 0,-0.473781 0.38753,-0.861314 0.86131,-0.861314"
           style="fill:#000000;fill-opacity:1;fill-rule:evenodd;stroke:none;stroke-width:0.291379"
           id="path116" />
        <path
           d="m 371.76986,-22.214251 -2.4129,0.368885 c -0.27651,0.04225 -0.49097,0.263989 -0.5236,0.541673 -0.033,0.277975 0.12354,0.543421 0.38316,0.648899 0.25874,0.10548 0.55624,0.02477 0.72699,-0.19668 l 1.90182,-0.08508 c 0.23077,-0.01049 0.43795,-0.144232 0.54226,-0.350237 0.10432,-0.205713 0.0897,-0.451927 -0.0379,-0.643946 -0.12821,-0.19231 -0.35228,-0.318185 -0.57985,-0.283511"
           style="fill:#000000;fill-opacity:1;fill-rule:evenodd;stroke:none;stroke-width:0.291379"
           id="path118" />
        <path
           d="m 371.01316,-20.442961 h -5.9e-4 c -0.47348,0 -0.86101,0.387533 -0.86101,0.861314 v 0.318185 c 0,0.47349 0.38753,0.860732 0.86101,0.860732 h 5.9e-4 c 0.47348,0 0.86102,-0.387242 0.86102,-0.860732 v -0.318185 c 0,-0.473781 -0.38754,-0.861314 -0.86102,-0.861314"
           style="fill:#000000;fill-opacity:1;fill-rule:evenodd;stroke:none;stroke-width:0.291379"
           id="path120" />
      </g>
    </g>
    <path
       class="a"
       d="m 576.8075,219.93026 h 5.26309 a 15.78949,15.78949 0 0 1 0,31.57898 h -5.26309"
       id="path8"
       style="fill:#4d4d4d;stroke:#000000;stroke-width:5.26316;stroke-linecap:round;stroke-linejoin:round"
       inkscape:export-filename="C:\Users\Fireworks\Desktop\path8.png"
       inkscape:export-xdpi="96"
       inkscape:export-ydpi="96" />
    <path
       class="a"
       d="m 576.8075,267.29873 a 10.526326,10.526326 0 0 1 -10.5264,10.52639 h -47.36847 a 10.526326,10.526326 0 0 1 -10.52639,-10.52639 v -55.26312 a 2.6315815,2.6315815 0 0 1 2.63155,-2.63175 h 63.15796 a 2.6315815,2.6315815 0 0 1 2.63175,2.63175 z"
       id="path10"
       style="fill:#4d4d4d;stroke:#000000;stroke-width:5.26316;stroke-linecap:round;stroke-linejoin:round"
       inkscape:export-filename="C:\Users\Fireworks\Desktop\path8.png"
       inkscape:export-xdpi="96"
       inkscape:export-ydpi="96" />
    <path
       class="a"
       d="m 576.18109,157.10907 c 5.43696,8.28434 -2.63155,12.82634 -4.48949,17.27385 a 8.1473766,8.1473766 0 0 0 4.65798,11.20532 c 15.26314,6.44728 19.81051,-23.64753 -0.15914,-28.47917 z"
       id="path12"
       style="fill:#4d4d4d;stroke:#000000;stroke-width:5.26316;stroke-linecap:round;stroke-linejoin:round"
       inkscape:export-filename="C:\Users\Fireworks\Desktop\path8.png"
       inkscape:export-xdpi="96"
       inkscape:export-ydpi="96" />
    <line
       class="a"
       x1="561.01807"
       y1="209.40384"
       x2="574.74927"
       y2="184.73549"
       id="line14"
       style="fill:#4d4d4d;stroke:#000000;stroke-width:5.26316;stroke-linecap:round;stroke-linejoin:round"
       inkscape:export-filename="C:\Users\Fireworks\Desktop\path8.png"
       inkscape:export-xdpi="96"
       inkscape:export-ydpi="96" />
    <line
       class="a"
       x1="580.18127"
       y1="186.54089"
       x2="571.54456"
       y2="209.40384"
       id="line16"
       style="fill:#4d4d4d;stroke:#000000;stroke-width:5.26316;stroke-linecap:round;stroke-linejoin:round"
       inkscape:export-filename="C:\Users\Fireworks\Desktop\path8.png"
       inkscape:export-xdpi="96"
       inkscape:export-ydpi="96" />
    <polygon
       class="a"
       points="3.5,7.5 3,4.5 5.5,6 8,10.5 5,10.5 "
       id="polygon18"
       style="fill:#4d4d4d;stroke:#000000;stroke-linecap:round;stroke-linejoin:round"
       inkscape:export-filename="C:\Users\Fireworks\Desktop\path8.png"
       inkscape:export-xdpi="96"
       inkscape:export-ydpi="96"
       transform="matrix(5.2631632,0,0,5.2631632,487.33365,154.14075)" />
    <line
       class="a"
       x1="505.75461"
       y1="193.61441"
       x2="516.28107"
       y2="185.71985"
       id="line20"
       style="fill:#4d4d4d;stroke:#000000;stroke-width:5.26316;stroke-linecap:round;stroke-linejoin:round"
       inkscape:export-filename="C:\Users\Fireworks\Desktop\path8.png"
       inkscape:export-xdpi="96"
       inkscape:export-ydpi="96" />
    <path
       class="a"
       d="m 555.75471,159.40385 a 2.6315815,2.6315815 0 0 0 -2.63155,-2.63155 h -15.78949 a 2.6315815,2.6315815 0 0 0 -2.63155,2.63155 v 50.00001 h 21.05259 z"
       id="path22"
       style="fill:#4d4d4d;stroke:#000000;stroke-width:5.26316;stroke-linecap:round;stroke-linejoin:round"
       inkscape:export-filename="C:\Users\Fireworks\Desktop\path8.png"
       inkscape:export-xdpi="96"
       inkscape:export-ydpi="96" />
    <line
       class="a"
       x1="555.75482"
       y1="167.2988"
       x2="545.22833"
       y2="167.2988"
       id="line24"
       style="fill:#4d4d4d;stroke:#000000;stroke-width:5.26316;stroke-linecap:round;stroke-linejoin:round"
       inkscape:export-filename="C:\Users\Fireworks\Desktop\path8.png"
       inkscape:export-xdpi="96"
       inkscape:export-ydpi="96" />
    <line
       class="a"
       x1="555.75482"
       y1="177.82498"
       x2="550.49158"
       y2="177.82498"
       id="line26"
       style="fill:#4d4d4d;stroke:#000000;stroke-width:5.26316;stroke-linecap:round;stroke-linejoin:round"
       inkscape:export-filename="C:\Users\Fireworks\Desktop\path8.png"
       inkscape:export-xdpi="96"
       inkscape:export-ydpi="96" />
    <line
       class="a"
       x1="555.75482"
       y1="188.35117"
       x2="545.22833"
       y2="188.35117"
       id="line28"
       style="fill:#4d4d4d;stroke:#000000;stroke-width:5.26316;stroke-linecap:round;stroke-linejoin:round"
       inkscape:export-filename="C:\Users\Fireworks\Desktop\path8.png"
       inkscape:export-xdpi="96"
       inkscape:export-ydpi="96" />
    <line
       class="a"
       x1="555.75482"
       y1="198.87766"
       x2="550.49158"
       y2="198.87766"
       id="line30"
       style="fill:#4d4d4d;stroke:#000000;stroke-width:5.26316;stroke-linecap:round;stroke-linejoin:round"
       inkscape:export-filename="C:\Users\Fireworks\Desktop\path8.png"
       inkscape:export-xdpi="96"
       inkscape:export-ydpi="96" />
    <path
       id="rect8814-0"
       style="stroke:#000000;stroke-width:0.553133"
       d="m -255.44513,173.95687 c 0,0 13.72128,-5.02856 20.87303,-4.96771 6.6755,0.0568 19.40132,4.96771 19.40132,4.96771 0.65846,0.11922 1.20789,0.53871 1.20789,1.20788 0,0.66917 -0.53872,1.20789 -1.20789,1.20789 0,0 -12.83034,-4.78451 -19.53931,-4.82972 -7.09653,-0.0478 -20.73504,4.82972 -20.73504,4.82972 -0.65172,0.1518 -1.20789,-0.53872 -1.20789,-1.20789 0,-0.66917 0.53872,-1.20788 1.20789,-1.20788 z"
       sodipodi:nodetypes="sasssasss"
       inkscape:export-filename="C:\Users\Fireworks\Documents\Pilot Proj\Aerometre\bad.png"
       inkscape:export-xdpi="96"
       inkscape:export-ydpi="96" />
    <rect
       style="fill:#000000;stroke:#000000;stroke-width:0.553133;stroke-miterlimit:4;stroke-dasharray:none;stroke-opacity:1"
       id="rect8814"
       width="42.690128"
       height="2.4157751"
       x="-182.32658"
       y="252.0723"
       ry="1.2078875" />
    <g
       id="g13554"
       inkscape:export-filename="C:\Users\Fireworks\Documents\Pilot Proj\Aerometre\good.png"
       inkscape:export-xdpi="96"
       inkscape:export-ydpi="96"
       transform="translate(-291.88153,4.8404897)">
      <path
         id="rect8814-0-8-1"
         style="stroke:#000000;stroke-width:0.553133"
         d="m 56.504276,91.341307 c 0,0 13.72127,5.02856 20.87302,4.96771 6.6755,-0.0568 19.40132,-4.96771 19.40132,-4.96771 0.65846,-0.11922 1.20789,-0.53871 1.20789,-1.20788 0,-0.66917 -0.53872,-1.20789 -1.20789,-1.20789 0,0 -12.83034,4.78451 -19.53931,4.82972 -7.09653,0.0478 -20.73503,-4.82972 -20.73503,-4.82972 -0.65172,-0.1518 -1.20789,0.53872 -1.20789,1.20789 0,0.66917 0.53872,1.20788 1.20789,1.20788 z"
         sodipodi:nodetypes="sasssasss" />
      <g
         id="g8790"
         transform="translate(-28.589386,-85.959789)"
         inkscape:export-filename="C:\Users\Fireworks\Documents\Pilot Proj\Aerometre\bad.png"
         inkscape:export-xdpi="96"
         inkscape:export-ydpi="96"
         style="stroke-width:2.64583;stroke-miterlimit:4;stroke-dasharray:none">
        <path
           d="m 69.957677,113.86291 42.691713,-0.1428 c 0,0 9.84748,-0.84194 14.63741,-1.98159 4.93378,-1.17387 14.38068,-4.96763 14.38068,-4.96763 l 5.76558,38.29255 v 16.06099 c 0,22.99827 -18.81637,41.81305 -41.81332,41.81305 h -10e-4 c -22.997254,0 -41.812994,-18.81478 -41.812994,-41.81305 l -6e-6,-16.68328 z"
           style="fill:none;fill-opacity:1;fill-rule:evenodd;stroke:#000000;stroke-width:2.64583;stroke-miterlimit:4;stroke-dasharray:none;stroke-opacity:1"
           id="path78-2"
           sodipodi:nodetypes="ccaccsssscc" />
        <path
           d="m 147.64248,145.09014 7.88723,-42.32515 c 1.31272,-7.048388 -1.37892,-14.245591 -6.99774,-18.700098 -5.61747,-4.455481 -13.23748,-5.438001 -19.80333,-2.554011 L 125.4026,77.076288 C 119.31323,68.95529 108.38118,66.184148 99.159093,70.421507 l -29.387272,7.39354 c -5.771847,1.451025 -10.437935,5.685564 -12.440764,11.288533 -2.004015,5.603048 -1.081228,11.83674 2.459076,16.61942 l 4.22501,38.62749 5.942534,-30.48758 40.843853,0.11654 c 10.64868,-0.45517 21.11761,-2.8991 30.86595,-7.20856 z"
           style="fill:none;fill-opacity:1;fill-rule:evenodd;stroke:#000000;stroke-width:2.64583;stroke-miterlimit:4;stroke-dasharray:none;stroke-opacity:1"
           id="path80-5" />
        <circle
           style="fill:#000000;stroke:#000000;stroke-width:2.64583;stroke-miterlimit:4;stroke-dasharray:none;stroke-opacity:1"
           id="path7784"
           cx="88.594551"
           cy="145.23444"
           r="6.4768414" />
        <circle
           style="fill:#000000;stroke:#000000;stroke-width:2.64583;stroke-miterlimit:4;stroke-dasharray:none;stroke-opacity:1"
           id="path7784-2"
           cx="122.66151"
           cy="145.65837"
           r="6.4768414" />
        <path
           style="fill:none;stroke:#000000;stroke-width:2.64583;stroke-miterlimit:4;stroke-dasharray:none;stroke-opacity:1"
           id="path8227"
           sodipodi:type="arc"
           sodipodi:cx="-144.44115"
           sodipodi:cy="63.80574"
           sodipodi:rx="9.8245049"
           sodipodi:ry="9.8245049"
           sodipodi:start="3.1346113"
           sodipodi:end="6.1784656"
           sodipodi:arc-type="arc"
           transform="rotate(-90)"
           sodipodi:open="true"
           d="m -154.26541,63.874328 a 9.8245049,9.8245049 0 0 1 9.27584,-9.877774 9.8245049,9.8245049 0 0 1 10.31911,8.782246" />
        <path
           style="fill:none;stroke:#000000;stroke-width:2.64583;stroke-miterlimit:4;stroke-dasharray:none;stroke-opacity:1"
           id="path8227-1"
           sodipodi:type="arc"
           sodipodi:cx="-142.00456"
           sodipodi:cy="-147.30292"
           sodipodi:rx="9.8245049"
           sodipodi:ry="9.8245049"
           sodipodi:start="3.1346113"
           sodipodi:end="5.9829887"
           sodipodi:arc-type="arc"
           transform="matrix(0,-1,-1,0,0,0)"
           sodipodi:open="true"
           d="m -151.82883,-147.23433 a 9.8245049,9.8245049 0 0 1 8.32126,-9.77744 9.8245049,9.8245049 0 0 1 10.88814,6.80367" />
      </g>
    </g>
    <g
       id="g13261"
       style="stroke-width:2.64583;stroke-miterlimit:4;stroke-dasharray:none"
       transform="translate(-222.9733,10.800123)">
      <path
         id="rect8814-0-8"
         style="stroke:#000000;stroke-width:2.64583;stroke-miterlimit:4;stroke-dasharray:none"
         d="m 69.273982,144.28387 c 0,0 13.72127,3.92919 20.87302,3.88164 6.6755,-0.0444 19.401318,-3.88164 19.401318,-3.88164 0.65846,-0.0932 1.20789,-0.42093 1.20789,-0.9438 0,-0.52287 -0.59114,0.1046 -1.26031,0.1046 0,0 -12.754723,3.87992 -19.329627,3.93107 -7.120434,0.0554 -20.997132,-3.93107 -20.997132,-3.93107 -0.65172,-0.11862 -1.103049,-0.62747 -1.103049,-0.1046 0,0.52287 0.53872,0.9438 1.20789,0.9438 z"
         sodipodi:nodetypes="sasssasss" />
      <path
         id="rect8814-0-8-7"
         style="stroke:#000000;stroke-width:2.64583;stroke-miterlimit:4;stroke-dasharray:none"
         d="m 69.483371,162.18855 c 0,0 13.72127,3.8927 20.87302,3.84559 6.675505,-0.0439 19.401329,-3.84559 19.401329,-3.84559 0.65846,-0.0923 1.20789,-0.41702 1.20789,-0.93503 0,-0.51802 -0.4863,0.009 -1.15547,0.009 0,0 -12.817314,3.98149 -19.434478,4.05329 -7.100912,0.077 -20.944711,-3.89603 -20.944711,-3.89603 -0.65172,-0.1175 -1.15547,-0.68379 -1.15547,-0.16577 0,0.51801 0.53872,0.93503 1.20789,0.93503 z"
         sodipodi:nodetypes="sasssasss" />
      <path
         id="rect9731"
         style="fill:none;stroke:#000000;stroke-width:2.64583;stroke-miterlimit:4;stroke-dasharray:none"
         d="m 57.359013,137.02557 c 0,0 21.449895,-3.37965 32.261529,-3.3503 10.274703,0.0279 30.641608,3.3503 30.641608,3.3503 l 0.1047,30.16261 c 0,0 -7.91227,7.31399 -12.6902,9.63204 -5.43267,2.6357 -11.49505,4.48241 -17.532905,4.5547 -6.935021,0.083 -13.968854,-1.8233 -20.257609,-4.74785 -4.721817,-2.19585 -12.527123,-9.33419 -12.527123,-9.33419 z"
         sodipodi:nodetypes="caccaaacc" />
      <path
         style="fill:none;stroke:#000000;stroke-width:2.64583;stroke-linecap:butt;stroke-linejoin:miter;stroke-miterlimit:4;stroke-dasharray:none;stroke-opacity:1"
         d="m 120.26215,137.02557 13.28451,-26.13846 v 0"
         id="path10503" />
      <path
         style="fill:none;stroke:#000000;stroke-width:2.64583;stroke-linecap:butt;stroke-linejoin:miter;stroke-miterlimit:4;stroke-dasharray:none;stroke-opacity:1"
         d="M 57.359013,137.02557 46.117359,112.93815"
         id="path10503-7"
         sodipodi:nodetypes="cc" />
    </g>
    <g
       id="g952"
       transform="translate(-221.66667,198.75)">
      <path
         style="fill:none;stroke:#000000;stroke-width:7.9375;stroke-miterlimit:4;stroke-dasharray:none"
         id="path954"
         sodipodi:type="arc"
         sodipodi:cx="108.82803"
         sodipodi:cy="181.73033"
         sodipodi:rx="74.896858"
         sodipodi:ry="74.896851"
         sodipodi:start="4.9637164"
         sodipodi:end="4.4854962"
         sodipodi:arc-type="arc"
         d="m 127.45413,109.1865 a 74.896858,74.896851 0 0 1 55.62145,82.38463 74.896858,74.896851 0 0 1 -75.16256,65.05046 74.896858,74.896851 0 0 1 -73.550801,-66.86743 74.896858,74.896851 0 0 1 57.617689,-81.00108"
         sodipodi:open="true"
         inkscape:export-filename="C:\Users\Fireworks\Documents\Pilot Proj\Aerometre-Static\Main Page\so2.png"
         inkscape:export-xdpi="96"
         inkscape:export-ydpi="96" />
      <path
         style="fill:none;stroke:#000000;stroke-width:9.0057;stroke-linecap:butt;stroke-linejoin:miter;stroke-miterlimit:4;stroke-dasharray:none;stroke-opacity:1"
         d="m 90.077466,113.53292 -0.212045,-28.664122 38.471779,-0.0085 0.0372,29.039962"
         id="path1207"
         sodipodi:nodetypes="cccc"
         inkscape:export-filename="C:\Users\Fireworks\Documents\Pilot Proj\Aerometre-Static\Main Page\so2.png"
         inkscape:export-xdpi="96"
         inkscape:export-ydpi="96" />
      <rect
         style="fill:none;fill-opacity:1;stroke:#000000;stroke-width:9.0057;stroke-miterlimit:4;stroke-dasharray:none;stroke-opacity:1"
         id="rect2128"
         width="64.706276"
         height="16.956249"
         x="76.105492"
         y="67.643639"
         ry="8.4781246"
         inkscape:export-filename="C:\Users\Fireworks\Documents\Pilot Proj\Aerometre-Static\Main Page\so2.png"
         inkscape:export-xdpi="96"
         inkscape:export-ydpi="96" />
      <path
         id="path2416"
         style="fill:none;stroke:#000000;stroke-width:9.0057;stroke-miterlimit:4;stroke-dasharray:none"
         d="m 161.90521,182.53738 c 0,29.66198 -24.04575,53.70781 -53.70778,53.70781 -29.661993,0 -53.707791,-24.04583 -53.707794,-53.70781 -10e-7,-10.31192 -0.312116,-22.95414 7.944066,-28.12505 19.077501,-11.94844 47.132598,11.85277 66.482778,11.85277 20.83398,0 21.46092,-7.56675 29.20371,-1.64125 4.84663,3.70906 3.78502,9.08546 3.78502,17.91353 z"
         sodipodi:nodetypes="sssasas"
         inkscape:export-filename="C:\Users\Fireworks\Documents\Pilot Proj\Aerometre-Static\Main Page\so2.png"
         inkscape:export-xdpi="96"
         inkscape:export-ydpi="96" />
      <circle
         style="fill:#000000;fill-opacity:1;stroke:none;stroke-width:9.0057;stroke-miterlimit:4;stroke-dasharray:none;stroke-opacity:1"
         id="path3281"
         cx="133.08678"
         cy="150.68469"
         inkscape:export-filename="C:\Users\Fireworks\Documents\Pilot Proj\Aerometre-Static\Main Page\so2.png"
         inkscape:export-xdpi="96"
         inkscape:export-ydpi="96"
         r="5.6728926" />
      <circle
         style="fill:#000000;fill-opacity:1;stroke:none;stroke-width:9.0057;stroke-miterlimit:4;stroke-dasharray:none;stroke-opacity:1"
         id="path3281-7"
         cx="120.10396"
         cy="132.75761"
         inkscape:export-filename="C:\Users\Fireworks\Documents\Pilot Proj\Aerometre-Static\Main Page\so2.png"
         inkscape:export-xdpi="96"
         inkscape:export-ydpi="96"
         r="2.8364463" />
      <text
         xml:space="preserve"
         style="font-style:normal;font-variant:normal;font-weight:bold;font-stretch:normal;font-size:43.2273px;line-height:1.25;font-family:Arial;-inkscape-font-specification:'Arial Bold';fill:#000000;fill-opacity:1;stroke:none;stroke-width:9.0057;stroke-miterlimit:4;stroke-dasharray:none"
         x="65.950607"
         y="201.97433"
         id="text4575"
         inkscape:export-filename="C:\Users\Fireworks\Documents\Pilot Proj\Aerometre-Static\Main Page\so2.png"
         inkscape:export-xdpi="96"
         inkscape:export-ydpi="96"><tspan
           sodipodi:role="line"
           id="tspan4573"
           style="font-style:normal;font-variant:normal;font-weight:bold;font-stretch:normal;font-size:43.2273px;font-family:Arial;-inkscape-font-specification:'Arial Bold';stroke-width:9.0057;stroke-miterlimit:4;stroke-dasharray:none"
           x="65.950607"
           y="201.97433">SO</tspan></text>
      <text
         xml:space="preserve"
         style="font-style:normal;font-variant:normal;font-weight:bold;font-stretch:normal;font-size:28.8182px;line-height:1.25;font-family:Arial;-inkscape-font-specification:'Arial Bold';fill:#000000;fill-opacity:1;stroke:none;stroke-width:9.0057;stroke-miterlimit:4;stroke-dasharray:none"
         x="126.94016"
         y="213.76813"
         id="text4575-5"
         inkscape:export-filename="C:\Users\Fireworks\Documents\Pilot Proj\Aerometre-Static\Main Page\so2.png"
         inkscape:export-xdpi="96"
         inkscape:export-ydpi="96"><tspan
           sodipodi:role="line"
           id="tspan4573-1"
           style="font-style:normal;font-variant:normal;font-weight:bold;font-stretch:normal;font-size:28.8182px;font-family:Arial;-inkscape-font-specification:'Arial Bold';stroke-width:9.0057;stroke-miterlimit:4;stroke-dasharray:none"
           x="126.94016"
           y="213.76813">2</tspan></text>
    </g>
  </g>
</svg>
