<?xml version="1.0" encoding="UTF-8" standalone="no"?>
<!-- Created with Inkscape (http://www.inkscape.org/) -->

<svg
   version="1.1"
   id="svg2"
   xml:space="preserve"
   width="666.66669"
   height="666.66669"
   viewBox="0 0 666.66669 666.66669"
   sodipodi:docname="notfound.svg"
   inkscape:version="1.1.2 (b8e25be833, 2022-02-05)"
   xmlns:inkscape="http://www.inkscape.org/namespaces/inkscape"
   xmlns:sodipodi="http://sodipodi.sourceforge.net/DTD/sodipodi-0.dtd"
   xmlns="http://www.w3.org/2000/svg"
   xmlns:svg="http://www.w3.org/2000/svg"><defs
     id="defs6"><clipPath
       clipPathUnits="userSpaceOnUse"
       id="clipPath16"><path
         d="M 0,500 H 500 V 0 H 0 Z"
         id="path14" /></clipPath></defs><sodipodi:namedview
     id="namedview4"
     pagecolor="#505050"
     bordercolor="#ffffff"
     borderopacity="1"
     inkscape:pageshadow="0"
     inkscape:pageopacity="0"
     inkscape:pagecheckerboard="1"
     showgrid="false"
     inkscape:zoom="0.61724998"
     inkscape:cx="313.48725"
     inkscape:cy="311.05712"
     inkscape:window-width="1920"
     inkscape:window-height="1009"
     inkscape:window-x="-8"
     inkscape:window-y="-8"
     inkscape:window-maximized="1"
     inkscape:current-layer="g8" /><g
     id="g8"
     inkscape:groupmode="layer"
     inkscape:label="man-lost-in-the-forest-publicdomainvectors.org"
     transform="matrix(1.3333333,0,0,-1.3333333,0,666.66667)"><g
       id="g1349"><path
         d="m 251.102,487.068 c 110.666,0 200.511,-89.846 200.511,-200.511 0,-110.666 -89.845,-200.513 -200.511,-200.513 -110.666,0 -200.512,89.847 -200.512,200.513 0,110.665 89.846,200.511 200.512,200.511"
         style="fill:#313133;fill-opacity:1;fill-rule:evenodd;stroke:none"
         id="path68" /><path
         d="m 338.986,106.32 c -4.413,-2.161 -8.918,-4.162 -13.507,-5.996 l -14.072,10.483 z"
         style="fill:#313033;fill-opacity:1;fill-rule:evenodd;stroke:none"
         id="path70" /><path
         d="m 353.821,114.369 -1.037,-0.614 -0.15,0.614 z"
         style="fill:#313033;fill-opacity:1;fill-rule:evenodd;stroke:none"
         id="path72" /><path
         d="m 406.743,160.211 -0.94,-1.168 -0.858,-1.015 -4.252,3.167 z"
         style="fill:#313033;fill-opacity:1;fill-rule:evenodd;stroke:none"
         id="path74" /><path
         d="m 285.624,156.023 -0.538,-3.474 6.139,5.042 z m -16.535,-4.627 -25.761,-7.208 16.483,67.491 27.229,22.36 -23.363,-6.539 14.761,60.436 12.436,10.211 -10.671,-2.985 14.137,57.88 20.329,-83.235 -16.245,3.774 18.109,-11.408 13.803,-56.509 -27.428,8.002 32.083,-27.062 3.991,-16.343 42.68,35.048 -45.163,-12.638 15.543,63.641 25.675,21.083 -22.03,-6.165 13.917,56.987 11.727,9.63 -10.062,-2.816 13.331,54.577 19.17,-78.485 -15.32,3.558 17.077,-10.755 13.016,-53.287 -25.864,7.546 30.253,-25.519 8.337,-34.133 c -6.726,-13.731 -14.976,-26.584 -24.526,-38.322 l -6.05,0.984 4.252,-3.167 c -14.433,-17.261 -31.716,-32.059 -51.124,-43.659 h -1.187 l 0.15,-0.614 c -4.489,-2.652 -9.091,-5.134 -13.798,-7.435 l -27.579,4.487 14.072,-10.483 C 309.552,93.943 292.622,89.554 274.995,87.456 l -0.796,-5.132 -8.235,4.264 c -4.905,-0.36 -9.862,-0.544 -14.862,-0.544 -7.327,0 -14.56,0.394 -21.689,1.174 l 3.967,16.239 -8.999,4.658 z"
         style="fill:#0e0e0f;fill-opacity:1;fill-rule:evenodd;stroke:none"
         id="path76" /><path
         d="m 89.654,167.704 10.969,44.912 39.579,33.386 -33.835,-9.872 17.027,69.713 22.34,14.071 -20.042,-4.656 25.08,102.68 17.44,-71.402 -13.164,3.684 15.34,-12.599 18.21,-74.554 -28.822,8.066 33.59,-27.582 20.335,-83.258 -59.087,16.532 49.837,-40.925 c -12.003,-11.435 -25.153,-21.678 -39.266,-30.529 -30.04,14.28 -55.975,35.811 -75.531,62.333"
         style="fill:#0e0e0f;fill-opacity:1;fill-rule:evenodd;stroke:none"
         id="path78" /><path
         d="m 136.21,409.557 c 34.634,0 62.752,-28.118 62.752,-62.752 0,-34.634 -28.118,-62.752 -62.752,-62.752 -34.634,0 -62.752,28.118 -62.752,62.752 0,34.634 28.118,62.752 62.752,62.752"
         style="fill:#6d4f42;fill-opacity:1;fill-rule:evenodd;stroke:none"
         id="path80" /><path
         d="m 136.21,381.239 c 19.004,0 34.435,-15.428 34.435,-34.434 0,-19.004 -15.431,-34.435 -34.435,-34.435 -19.005,0 -34.434,15.431 -34.434,34.435 0,19.006 15.429,34.434 34.434,34.434"
         style="fill:#a86e51;fill-opacity:1;fill-rule:evenodd;stroke:none"
         id="path82" /><path
         d="m 136.21,365.7 c 10.429,0 18.895,-8.466 18.895,-18.895 0,-10.428 -8.466,-18.895 -18.895,-18.895 -10.429,0 -18.896,8.467 -18.896,18.895 0,10.429 8.467,18.895 18.896,18.895"
         style="fill:#e48c60;fill-opacity:1;fill-rule:evenodd;stroke:none"
         id="path84" /><path
         d="m 224.533,305.204 c -1.456,-5.088 -4.872,-9.389 -9.499,-11.957 -4.627,-2.568 -10.083,-3.194 -15.17,-1.74 l -0.002,10e-4 c -5.087,1.455 -9.388,4.871 -11.957,9.498 -2.568,4.626 -3.194,10.083 -1.739,15.171 4.581,16.015 11.077,38.734 15.658,54.748 1.454,5.088 4.871,9.388 9.498,11.957 4.626,2.57 10.082,3.195 15.17,1.74 h 0.001 c 5.088,-1.455 9.388,-4.872 11.959,-9.497 2.567,-4.627 3.193,-10.084 1.737,-15.171 -4.58,-16.017 -11.077,-38.733 -15.656,-54.75"
         style="fill:#e48c60;fill-opacity:1;fill-rule:evenodd;stroke:none"
         id="path86" /><path
         d="m 272.163,411.148 -29.928,-4.607 4.475,-29.073 29.93,4.607 z"
         style="fill:#e48c60;fill-opacity:1;fill-rule:evenodd;stroke:none"
         id="path88" /><path
         d="m 277.251,453.227 -45.102,2.84 c 0,0 -1.373,-21.792 -2.491,-39.559 -0.783,-12.454 8.677,-23.186 21.131,-23.97 v -0.001 c 12.455,-0.783 23.187,8.677 23.972,21.132 1.118,17.767 2.49,39.558 2.49,39.558"
         style="fill:#e48c60;fill-opacity:1;fill-rule:evenodd;stroke:none"
         id="path90" /><path
         d="m 230.367,428.329 -3.7,17.4 16.873,2.633 28.704,-2.028 7.071,-1.548 -4.571,-32.131 -3.614,8.378 -10.649,3.289 3.679,13.896 -32.912,1.623 z"
         style="fill:#e48c60;fill-opacity:1;fill-rule:evenodd;stroke:none"
         id="path92" /><path
         d="m 233.411,386.518 c 5.386,0 10.549,-2.139 14.357,-5.946 3.805,-3.807 5.946,-8.97 5.946,-14.355 0,-5.384 -2.141,-10.548 -5.946,-14.356 -3.808,-3.806 -8.971,-5.945 -14.357,-5.945 H 222.68 c -5.383,0 -10.547,2.139 -14.354,5.945 -3.808,3.808 -5.947,8.972 -5.947,14.356 0,5.385 2.139,10.548 5.947,14.355 3.807,3.807 8.971,5.946 14.354,5.946 z"
         style="fill:#e48c60;fill-opacity:1;fill-rule:evenodd;stroke:none"
         id="path94" /><path
         d="m 276.818,260.38 c 0,6.589 2.618,12.907 7.277,17.566 4.658,4.659 10.976,7.276 17.565,7.276 h 10e-4 c 6.587,0 12.907,-2.617 17.567,-7.276 4.657,-4.659 7.275,-10.977 7.275,-17.566 v -71.134 c 0,-6.588 -2.618,-12.907 -7.275,-17.566 -4.66,-4.658 -10.98,-7.275 -17.567,-7.275 h -10e-4 c -6.589,0 -12.907,2.617 -17.565,7.275 -4.659,4.659 -7.277,10.978 -7.277,17.566 z"
         style="fill:#58311e;fill-opacity:1;fill-rule:evenodd;stroke:none"
         id="path96" /><path
         d="m 282.271,173.292 c 0,13.719 11.123,24.841 24.842,24.841 h 10e-4 c 13.719,0 24.841,-11.122 24.841,-24.841 V 95.699 c 0,-13.719 -11.122,-24.842 -24.841,-24.842 h -10e-4 c -13.719,0 -24.842,11.123 -24.842,24.842 z"
         style="fill:#58311e;fill-opacity:1;fill-rule:evenodd;stroke:none"
         id="path98" /><path
         d="m 226.264,252.471 c 4.989,12.781 19.395,19.095 32.175,14.104 h 10e-4 c 12.78,-4.989 19.095,-19.395 14.105,-32.175 -6.36,-16.288 -14.839,-38.001 -21.196,-54.29 -4.991,-12.779 -19.398,-19.094 -32.176,-14.104 h -0.002 c -12.78,4.99 -19.094,19.395 -14.105,32.176 6.359,16.288 14.838,38.002 21.198,54.289"
         style="fill:#e48c60;fill-opacity:1;fill-rule:evenodd;stroke:none"
         id="path100" /><path
         d="m 202.464,182.521 c 2.396,6.138 7.133,11.073 13.166,13.717 6.035,2.645 12.872,2.784 19.009,0.389 h 10e-4 c 6.137,-2.397 11.071,-7.133 13.716,-13.167 2.646,-6.034 2.786,-12.871 0.39,-19.01 -8.196,-20.991 -20.217,-51.776 -28.413,-72.767 -2.397,-6.137 -7.132,-11.071 -13.167,-13.716 -6.034,-2.646 -12.871,-2.785 -19.008,-0.389 h -0.002 c -6.137,2.397 -11.071,7.132 -13.716,13.167 -2.645,6.033 -2.785,12.871 -0.388,19.008 8.195,20.992 20.216,51.776 28.412,72.768"
         style="fill:#e48c60;fill-opacity:1;fill-rule:evenodd;stroke:none"
         id="path102" /><path
         d="m 230.875,249.268 c 4.99,12.781 19.395,19.096 32.175,14.107 0,-0.002 0,-0.002 0.002,-0.002 12.779,-4.99 19.094,-19.394 14.104,-32.175 -6.359,-16.289 -14.837,-38.002 -21.197,-54.29 -4.99,-12.78 -19.396,-19.095 -32.175,-14.105 l -0.002,0.001 c -12.779,4.99 -19.094,19.395 -14.104,32.175 6.359,16.288 14.838,38.001 21.197,54.289"
         style="fill:#492919;fill-opacity:1;fill-rule:evenodd;stroke:none"
         id="path104" /><path
         d="m 207.076,179.319 c 2.396,6.137 7.132,11.072 13.166,13.716 6.034,2.646 12.872,2.785 19.009,0.39 0,-0.001 0.001,-0.001 0.001,-0.001 6.137,-2.396 11.07,-7.133 13.716,-13.167 2.645,-6.033 2.785,-12.871 0.388,-19.009 -8.195,-20.991 -20.216,-51.777 -28.412,-72.769 -2.396,-6.135 -7.132,-11.07 -13.167,-13.715 -6.033,-2.645 -12.871,-2.785 -19.008,-0.389 h -0.001 c -6.138,2.396 -11.07,7.133 -13.717,13.167 -2.645,6.033 -2.785,12.872 -0.387,19.009 8.195,20.991 20.216,51.776 28.412,72.768"
         style="fill:#492919;fill-opacity:1;fill-rule:evenodd;stroke:none"
         id="path106" /><path
         d="m 230.207,76.079 c -3.23,15.454 -16.077,27.789 -32.614,29.623 -19.391,2.151 -36.992,-10.898 -40.893,-29.623 z"
         style="fill:#0e0e0f;fill-opacity:1;fill-rule:evenodd;stroke:none"
         id="path108" /><path
         d="m 255.396,461.157 c -0.994,4.781 -4.486,8.658 -9.141,10.144 -3.019,0.965 -6.63,2.118 -10.227,3.267 -4.113,1.313 -8.601,0.657 -12.166,-1.779 -3.565,-2.436 -5.809,-6.379 -6.081,-10.688 V 462.1 c -0.646,-10.286 7.166,-19.148 17.451,-19.795 2.479,-0.157 5.01,-0.316 7.458,-0.47 4.031,-0.254 7.952,1.389 10.598,4.442 2.647,3.052 3.715,7.165 2.892,11.121 -0.271,1.299 -0.534,2.567 -0.784,3.759"
         style="fill:#e48c60;fill-opacity:1;fill-rule:evenodd;stroke:none"
         id="path110" /><path
         d="m 233.691,288.757 -6.837,-1.156 5.726,-33.969 5.825,7.226 z"
         style="fill:#e48c60;fill-opacity:1;fill-rule:evenodd;stroke:none"
         id="path112" /><path
         d="m 314.563,299.455 -83.132,-15.236 c 0,0 2.132,-11.637 4.617,-25.195 2.02,-11.023 8.338,-20.794 17.561,-27.161 9.224,-6.365 20.6,-8.808 31.622,-6.787 h 0.001 c 11.024,2.021 20.793,8.337 27.161,17.562 6.367,9.223 8.808,20.598 6.788,31.623 -2.485,13.556 -4.618,25.194 -4.618,25.194"
         style="fill:#58311e;fill-opacity:1;fill-rule:evenodd;stroke:none"
         id="path114" /><path
         d="m 229.981,307.562 c -1.456,-5.088 -4.871,-9.389 -9.498,-11.957 -4.626,-2.568 -10.084,-3.195 -15.17,-1.74 v 0.002 c -5.088,1.454 -9.391,4.87 -11.959,9.497 -2.569,4.625 -3.193,10.083 -1.739,15.171 4.58,16.015 11.076,38.733 15.657,54.748 1.457,5.088 4.872,9.389 9.498,11.957 4.626,2.569 10.084,3.195 15.171,1.739 h 0.002 c 5.087,-1.455 9.389,-4.871 11.957,-9.497 2.568,-4.627 3.194,-10.084 1.739,-15.171 -4.581,-16.016 -11.077,-38.733 -15.658,-54.749"
         style="fill:#a86e51;fill-opacity:1;fill-rule:evenodd;stroke:none"
         id="path116" /><path
         d="m 204.128,330.774 c 5.112,1.37 10.559,0.652 15.142,-1.994 4.582,-2.645 7.926,-7.002 9.295,-12.113 v -10e-4 c 1.37,-5.112 0.653,-10.558 -1.993,-15.14 -2.646,-4.583 -7.004,-7.927 -12.115,-9.297 -9.577,-2.565 -21.116,-5.657 -30.69,-8.224 -5.111,-1.369 -10.558,-0.651 -15.141,1.995 -4.582,2.646 -7.926,7.002 -9.296,12.114 -1.37,5.112 -0.652,10.558 1.994,15.141 2.645,4.583 7.003,7.926 12.114,9.296 9.575,2.565 21.114,5.657 30.69,8.223"
         style="fill:#a86e51;fill-opacity:1;fill-rule:evenodd;stroke:none"
         id="path118" /><path
         d="m 229.699,385.839 c 5.385,0 10.548,-2.138 14.356,-5.945 3.807,-3.808 5.946,-8.972 5.946,-14.355 v -0.002 c 0,-5.383 -2.139,-10.547 -5.946,-14.354 -3.808,-3.808 -8.971,-5.946 -14.356,-5.946 h -10.731 c -5.384,0 -10.547,2.138 -14.355,5.946 -3.807,3.807 -5.946,8.971 -5.946,14.354 v 0.002 c 0,5.383 2.139,10.547 5.946,14.355 3.808,3.807 8.971,5.945 14.355,5.945 z"
         style="fill:#e48c60;fill-opacity:1;fill-rule:evenodd;stroke:none"
         id="path120" /><path
         d="m 296.979,321.819 c -1.111,9.97 -6.135,19.09 -13.969,25.355 -7.835,6.265 -17.837,9.16 -27.806,8.051 -9.971,-1.111 -19.092,-6.135 -25.355,-13.97 -6.264,-7.834 -9.162,-17.837 -8.051,-27.806 0.786,-7.053 1.606,-14.427 2.391,-21.48 1.111,-9.97 6.135,-19.09 13.969,-25.354 7.835,-6.265 17.837,-9.161 27.808,-8.05 9.969,1.108 19.089,6.133 25.353,13.969 6.266,7.834 9.16,17.836 8.051,27.805 -0.785,7.053 -1.606,14.428 -2.391,21.48"
         style="fill:#e48c60;fill-opacity:1;fill-rule:evenodd;stroke:none"
         id="path122" /><path
         d="m 322.755,342.54 c 0,9.284 -3.69,18.189 -10.254,24.755 -6.565,6.565 -15.471,10.253 -24.755,10.253 h -45.427 c -9.285,0 -18.19,-3.688 -24.755,-10.253 -6.564,-6.566 -10.253,-15.471 -10.253,-24.755 0,-9.286 3.689,-18.19 10.253,-24.755 6.565,-6.566 15.47,-10.254 24.755,-10.254 h 45.427 c 9.284,0 18.19,3.688 24.755,10.254 6.564,6.565 10.254,15.469 10.254,24.755"
         style="fill:#e48c60;fill-opacity:1;fill-rule:evenodd;stroke:none"
         id="path124" /><path
         d="m 234.165,385.323 c 5.384,0 10.548,-2.139 14.355,-5.946 3.807,-3.807 5.946,-8.971 5.946,-14.356 0,-5.384 -2.139,-10.548 -5.946,-14.354 -3.807,-3.808 -8.971,-5.946 -14.355,-5.946 h -10.733 c -5.383,0 -10.547,2.138 -14.354,5.946 -3.808,3.806 -5.947,8.97 -5.947,14.354 0,5.385 2.139,10.549 5.947,14.356 3.807,3.807 8.971,5.946 14.354,5.946 z"
         style="fill:#374b5e;fill-opacity:1;fill-rule:evenodd;stroke:none"
         id="path126" /><path
         d="m 236.831,388.138 c 5.384,0 10.547,-2.139 14.355,-5.946 3.807,-3.807 5.946,-8.971 5.946,-14.355 0,-5.385 -2.139,-10.548 -5.946,-14.356 -3.808,-3.806 -8.971,-5.946 -14.355,-5.946 h -10.732 c -5.384,0 -10.547,2.14 -14.354,5.946 -3.808,3.808 -5.947,8.971 -5.947,14.356 0,5.384 2.139,10.548 5.947,14.355 3.807,3.807 8.97,5.946 14.354,5.946 z"
         style="fill:#44586b;fill-opacity:1;fill-rule:evenodd;stroke:none"
         id="path128" /><path
         d="m 298.837,328.626 c -1.058,9.498 -5.845,18.186 -13.309,24.155 -7.462,5.968 -16.992,8.726 -26.488,7.67 v -0.002 c -9.498,-1.057 -18.186,-5.845 -24.154,-13.307 -5.969,-7.464 -8.727,-16.992 -7.669,-26.489 1.087,-9.762 2.264,-20.336 3.35,-30.098 1.058,-9.496 5.844,-18.186 13.309,-24.153 7.462,-5.968 16.991,-8.727 26.488,-7.669 h 0.001 c 9.497,1.057 18.186,5.844 24.154,13.307 5.967,7.463 8.727,16.991 7.669,26.489 -1.086,9.762 -2.264,20.336 -3.351,30.097"
         style="fill:#374b5e;fill-opacity:1;fill-rule:evenodd;stroke:none"
         id="path130" /><path
         d="m 323.44,347.453 c 0,10.524 -4.18,20.617 -11.622,28.058 -7.442,7.442 -17.535,11.622 -28.059,11.622 h -31.467 c -10.525,0 -20.618,-4.18 -28.061,-11.622 -7.442,-7.441 -11.622,-17.534 -11.622,-28.058 v -10e-4 c 0,-10.524 4.18,-20.618 11.622,-28.058 7.443,-7.443 17.536,-11.623 28.061,-11.623 h 31.467 c 10.524,0 20.617,4.18 28.059,11.623 7.442,7.44 11.622,17.534 11.622,28.058 z"
         style="fill:#44586b;fill-opacity:1;fill-rule:evenodd;stroke:none"
         id="path132" /><path
         d="m 275.989,412.019 -29.929,-4.607 4.475,-29.074 29.929,4.608 z"
         style="fill:#a86e51;fill-opacity:1;fill-rule:evenodd;stroke:none"
         id="path134" /><path
         d="m 139.484,345.418 c 1.775,0.476 3.666,0.226 5.258,-0.692 1.591,-0.919 2.752,-2.433 3.229,-4.207 2.239,-8.361 6.05,-22.58 8.29,-30.94 0.475,-1.775 0.226,-3.666 -0.693,-5.258 -0.919,-1.591 -2.432,-2.753 -4.206,-3.228 l -0.001,-0.001 c -1.776,-0.475 -3.667,-0.226 -5.259,0.694 -1.591,0.918 -2.752,2.431 -3.227,4.206 -2.241,8.36 -6.051,22.58 -8.291,30.939 -0.476,1.776 -0.227,3.667 0.692,5.258 0.919,1.592 2.432,2.753 4.208,3.229"
         style="fill:#e48c60;fill-opacity:1;fill-rule:evenodd;stroke:none"
         id="path136" /><path
         d="m 272.622,406.85 -1.163,5.484 -26.019,-5.517 3.316,-15.628 c 3.306,-1.619 6.791,-2.132 10.113,-1.427 5.019,1.064 9.253,4.818 11.77,10.436 0.92,2.055 1.584,4.298 1.983,6.652"
         style="fill:#8a5c45;fill-opacity:1;fill-rule:evenodd;stroke:none"
         id="path138" /><path
         d="m 280.813,454.757 -45.101,2.84 c 0,0 -1.371,-21.791 -2.491,-39.56 -0.784,-12.454 8.676,-23.185 21.132,-23.97 12.455,-0.784 23.186,8.677 23.97,21.132 1.118,17.766 2.49,39.558 2.49,39.558"
         style="fill:#a86e51;fill-opacity:1;fill-rule:evenodd;stroke:none"
         id="path140" /><path
         d="m 258.867,462.726 c -0.992,4.798 -4.488,8.693 -9.155,10.191 -3.24,1.041 -7.16,2.299 -11.006,3.534 -3.917,1.258 -8.196,0.638 -11.595,-1.68 -3.399,-2.318 -5.536,-6.076 -5.796,-10.181 -0.685,-10.882 7.581,-20.257 18.462,-20.943 2.155,-0.135 4.334,-0.273 6.45,-0.405 4.017,-0.254 7.922,1.381 10.563,4.422 2.642,3.04 3.713,7.137 2.898,11.08 -0.284,1.377 -0.561,2.721 -0.821,3.982"
         style="fill:#2c1d17;fill-opacity:1;fill-rule:evenodd;stroke:none"
         id="path142" /><path
         d="m 285.861,448.781 c 0.28,4.42 -3.08,8.228 -7.499,8.506 -10.689,0.673 -29.516,1.859 -40.206,2.531 -4.42,0.279 -8.227,-3.078 -8.506,-7.499 -0.278,-4.42 3.079,-8.228 7.498,-8.506 10.69,-0.673 29.517,-1.859 40.206,-2.533 4.42,-0.277 8.228,3.08 8.507,7.501"
         style="fill:#2c1d17;fill-opacity:1;fill-rule:evenodd;stroke:none"
         id="path144" /><path
         d="m 273.585,452.224 c 0.652,1.936 0.508,4.052 -0.4,5.882 -0.909,1.83 -2.507,3.224 -4.444,3.876 -7.669,2.581 -19.66,6.618 -27.329,9.2 -1.937,0.651 -4.053,0.506 -5.883,-0.401 -1.831,-0.909 -3.224,-2.507 -3.877,-4.443 v -0.001 c -0.652,-1.936 -0.508,-4.052 0.401,-5.883 0.908,-1.83 2.507,-3.224 4.443,-3.875 7.669,-2.581 19.662,-6.618 27.331,-9.2 1.936,-0.652 4.052,-0.507 5.882,0.401 1.831,0.908 3.225,2.507 3.876,4.443 z"
         style="fill:#2c1d17;fill-opacity:1;fill-rule:evenodd;stroke:none"
         id="path146" /><path
         d="m 233.929,429.857 -3.699,17.401 16.872,2.634 28.706,-2.028 7.071,-1.548 -4.571,-32.131 -3.616,8.378 -10.646,3.289 3.677,13.896 -32.91,1.624 z"
         style="fill:#2c1d17;fill-opacity:1;fill-rule:evenodd;stroke:none"
         id="path148" /><path
         d="m 275.995,434.343 c 2.71,-1.109 3.485,-5.489 1.73,-9.775 -1.754,-4.285 -5.379,-6.864 -8.088,-5.754 -2.709,1.109 -3.485,5.489 -1.729,9.775 1.755,4.285 5.378,6.864 8.087,5.754"
         style="fill:#a86e51;fill-opacity:1;fill-rule:evenodd;stroke:none"
         id="path150" /><path
         d="m 362.866,340.459 c 7.109,-10.339 4.488,-24.482 -5.85,-31.59 -10.34,-7.107 -24.485,-4.488 -31.591,5.852 -8.775,12.765 -20.35,29.602 -29.123,42.367 -7.109,10.34 -4.488,24.482 5.85,31.59 h 0.001 c 10.339,7.108 24.484,4.487 31.591,-5.852 8.775,-12.764 20.349,-29.602 29.122,-42.367"
         style="fill:#a86e51;fill-opacity:1;fill-rule:evenodd;stroke:none"
         id="path152" /><path
         d="m 305.692,271.207 c -4.545,-3.125 -10.144,-4.316 -15.567,-3.311 -5.424,1.005 -10.226,4.122 -13.349,8.666 v 0.002 c -3.125,4.545 -4.316,10.144 -3.31,15.567 1.004,5.423 4.121,10.224 8.666,13.348 15.545,10.686 38.341,26.355 53.884,37.041 4.546,3.124 10.144,4.315 15.567,3.31 5.424,-1.005 10.224,-4.122 13.349,-8.666 v -10e-4 c 3.125,-4.545 4.315,-10.145 3.311,-15.567 -1.005,-5.424 -4.124,-10.226 -8.668,-13.349 -15.544,-10.685 -38.339,-26.355 -53.883,-37.04"
         style="fill:#a86e51;fill-opacity:1;fill-rule:evenodd;stroke:none"
         id="path154" /><path
         d="m 282.373,387.232 c 0.214,-0.727 0.324,-1.475 0.324,-2.241 0,-6.612 -8.301,-11.98 -18.524,-11.98 -10.225,0 -18.527,5.368 -18.527,11.98 0,0.539 0.055,1.069 0.162,1.588 2.351,0.431 4.751,0.653 7.172,0.653 z"
         style="fill:#a86e51;fill-opacity:1;fill-rule:evenodd;stroke:none"
         id="path156" /><path
         d="m 183.731,302.615 c 0,14.599 -11.614,26.451 -25.92,26.451 -14.307,0 -25.922,-11.852 -25.922,-26.451 0,-14.599 11.615,-26.452 25.922,-26.452 14.306,0 25.92,11.853 25.92,26.452"
         style="fill:#e48c60;fill-opacity:1;fill-rule:evenodd;stroke:none"
         id="path158" /><path
         d="m 137.222,345.418 c 1.774,0.476 3.666,0.226 5.258,-0.692 1.59,-0.919 2.752,-2.433 3.228,-4.207 2.24,-8.361 6.05,-22.58 8.29,-30.94 0.476,-1.775 0.227,-3.666 -0.692,-5.258 -0.919,-1.591 -2.432,-2.753 -4.207,-3.228 0,-0.001 0,-0.001 -0.002,-0.001 -1.774,-0.475 -3.665,-0.226 -5.257,0.694 -1.591,0.918 -2.752,2.431 -3.228,4.206 -2.241,8.36 -6.05,22.58 -8.291,30.939 -0.474,1.776 -0.225,3.667 0.692,5.258 0.92,1.592 2.433,2.753 4.208,3.229 z"
         style="fill:#313033;fill-opacity:1;fill-rule:evenodd;stroke:none"
         id="path160" /><path
         d="m 183.289,299.699 c 0,14.305 -11.615,25.921 -25.921,25.921 -14.306,0 -25.922,-11.616 -25.922,-25.921 0,-14.307 11.616,-25.922 25.922,-25.922 14.306,0 25.921,11.615 25.921,25.922"
         style="fill:#a86e51;fill-opacity:1;fill-rule:evenodd;stroke:none"
         id="path162" /><path
         d="m 330.576,79.941 c -1.593,7.854 -5.596,14.903 -11.254,20.177 v 75.153 c 0,5.676 -1.884,11.149 -5.294,15.537 0.002,0.138 0.004,0.279 0.004,0.42 v 71.132 c 0,6.589 -2.54,12.907 -7.059,17.566 -2.964,3.054 -6.62,5.232 -10.593,6.362 2.083,0.605 4.253,0.915 6.452,0.915 h 0.001 c 6.393,0 12.522,-2.618 17.043,-7.277 4.52,-4.659 7.06,-10.977 7.06,-17.566 v -71.132 c 0,-0.141 -10e-4,-0.282 -0.003,-0.42 3.41,-4.388 5.294,-9.861 5.294,-15.537 v -75.153 c 5.658,-5.274 9.661,-12.323 11.253,-20.177 z"
         style="fill:#492919;fill-opacity:1;fill-rule:evenodd;stroke:none"
         id="path164" /><path
         d="m 345.867,77.961 c -3.232,15.453 -16.078,27.789 -32.615,29.624 -19.392,2.149 -36.992,-10.9 -40.892,-29.624 z"
         style="fill:#0e0e0f;fill-opacity:1;fill-rule:evenodd;stroke:none"
         id="path166" /><path
         d="m 250.121,91.104 c 81.282,0 147.273,-4.858 147.273,-10.84 0,-5.982 -65.991,-10.837 -147.273,-10.837 -81.283,0 -147.274,4.855 -147.274,10.837 0,5.982 65.991,10.84 147.274,10.84"
         style="fill:#0e0e0f;fill-opacity:1;fill-rule:evenodd;stroke:none"
         id="path168" /><path
         d="m 244.681,405.798 c 0.992,0.216 2.031,0.027 2.887,-0.523 0.854,-0.549 1.456,-1.417 1.672,-2.41 0.02,-0.089 0.039,-0.178 0.058,-0.268 0.215,-0.993 0.028,-2.032 -0.522,-2.886 -0.55,-0.856 -1.417,-1.457 -2.41,-1.672 0,-10e-4 -0.001,-10e-4 -0.001,-10e-4 -0.993,-0.215 -2.032,-0.028 -2.887,0.522 -0.855,0.55 -1.456,1.417 -1.673,2.411 -0.019,0.089 -0.038,0.178 -0.057,0.268 -0.216,0.992 -0.029,2.032 0.521,2.886 0.55,0.855 1.418,1.457 2.41,1.673 z"
         style="fill:#ffffff;fill-opacity:1;fill-rule:evenodd;stroke:none"
         id="path170" /><path
         d="m 136.21,357.173 c 5.723,0 10.368,-4.645 10.368,-10.368 0,-5.723 -4.645,-10.368 -10.368,-10.368 -5.723,0 -10.369,4.645 -10.369,10.368 0,5.723 4.646,10.368 10.369,10.368"
         style="fill:#ffffff;fill-opacity:1;fill-rule:evenodd;stroke:none"
         id="path172" /><path
         d="m 175.865,304.576 c 0,0 0.341,-1.269 0.866,-3.235 1.539,-5.741 0.735,-11.859 -2.238,-17.007 -2.972,-5.149 -7.869,-8.904 -13.611,-10.443 -3.844,-1.03 -7.693,-2.061 -11.067,-2.965 -2.872,-0.769 -5.93,-0.366 -8.504,1.12 -2.574,1.486 -4.452,3.934 -5.221,6.805 -1.798,6.71 -3.768,14.059 -3.768,14.059 z"
         style="fill:#a86e51;fill-opacity:1;fill-rule:evenodd;stroke:none"
         id="path174" /><path
         d="m 283.756,297.866 h -10e-4 c -4.499,-0.097 -8.776,-1.979 -11.888,-5.228 -3.112,-3.251 -4.805,-7.605 -4.708,-12.104 0.1,-4.651 0.208,-9.576 0.301,-13.815 0.064,-2.972 1.307,-5.797 3.453,-7.851 2.147,-2.056 5.023,-3.175 7.995,-3.11 3.16,0.07 5.759,0.126 5.759,0.126 z"
         style="fill:#a86e51;fill-opacity:1;fill-rule:evenodd;stroke:none"
         id="path176" /><path
         d="m 278.247,289.788 h -0.001 c -4.015,-2.033 -7.057,-5.578 -8.458,-9.854 -1.401,-4.276 -1.047,-8.934 0.987,-12.949 1.504,-2.97 3.047,-6.016 4.439,-8.766 2.797,-5.522 9.54,-7.73 15.061,-4.935 2.823,1.429 5.14,2.604 5.14,2.604 z"
         style="fill:#a86e51;fill-opacity:1;fill-rule:evenodd;stroke:none"
         id="path178" /><path
         d="m 289.654,307.612 c 4.09,1.522 8.65,2.147 13.369,1.644 13.231,-1.41 23.373,-11.228 24.755,-22.993 l -15.959,-11.847 c -8.868,-6.585 -21.962,-5.191 -29.243,3.114 -7.283,8.305 -5.997,20.373 2.871,26.959 z"
         style="fill:#8a5c45;fill-opacity:1;fill-rule:evenodd;stroke:none"
         id="path180" /><path
         d="m 300.124,309.431 c 14.998,-2.778 24.919,-17.211 22.142,-32.209 -2.779,-14.998 -17.211,-24.921 -32.21,-22.141 -14.999,2.778 -24.92,17.21 -22.142,32.209 2.778,14.998 17.211,24.92 32.21,22.141"
         style="fill:#a86e51;fill-opacity:1;fill-rule:evenodd;stroke:none"
         id="path182" /><path
         d="m 308.866,391.519 c 9.189,3.11 19.659,-0.16 25.421,-8.679 8.621,-12.744 19.992,-29.556 28.612,-42.299 0.553,-0.817 1.046,-1.659 1.481,-2.518 0.187,-0.253 0.37,-0.511 0.548,-0.774 6.393,-9.449 4.036,-22.375 -5.262,-28.871 l -31.254,-21.833 0.013,-0.116 -4.958,-3.742 c 0.014,-1.741 -0.134,-3.51 -0.457,-5.286 -2.549,-13.972 -15.065,-23.531 -28.701,-22.494 l -5.116,-2.634 c -1.971,-1.014 -4.259,-1.191 -6.36,-0.492 -1.26,0.42 -2.39,1.133 -3.305,2.073 l 1.544,0.794 c 13.638,-1.038 26.156,8.521 28.701,22.495 0.324,1.777 0.473,3.544 0.458,5.285 l 4.958,3.741 -0.013,0.117 31.255,21.833 c 9.298,6.495 11.654,19.422 5.262,28.871 -0.179,0.264 -0.362,0.522 -0.549,0.774 -0.435,0.861 -0.927,1.701 -1.48,2.517 -8.621,12.745 -19.992,29.555 -28.613,42.301 -3.043,4.497 -7.397,7.533 -12.185,8.937"
         style="fill:#895c45;fill-opacity:1;fill-rule:evenodd;stroke:none"
         id="path184" /><path
         d="m 319.321,389.657 c 5.292,0 10.368,-2.103 14.11,-5.844 3.742,-3.742 5.842,-8.816 5.842,-14.108 0,-5.292 -2.1,-10.367 -5.842,-14.108 -3.742,-3.742 -8.818,-5.844 -14.11,-5.844 h -10.802 c -5.292,0 -8.378,2.181 -12.12,5.923 -3.742,3.742 -7.832,8.737 -7.832,14.029 0,5.292 2.102,10.366 5.843,14.108 3.742,3.741 8.817,5.844 14.109,5.844 z"
         style="fill:#374b5e;fill-opacity:1;fill-rule:evenodd;stroke:none"
         id="path186" /><path
         d="m 315.817,393.161 c 11.019,0 19.953,-8.932 19.953,-19.952 v 0 c 0,-11.019 -8.934,-19.951 -19.953,-19.951 h -10.802 c -11.02,0 -19.953,8.932 -19.953,19.951 v 0 c 0,11.02 8.933,19.952 19.953,19.952 z"
         style="fill:#44586b;fill-opacity:1;fill-rule:evenodd;stroke:none"
         id="path188" /><path
         d="m 262.14,427.9 c 0.087,1.828 -1.313,3.386 -3.141,3.494 -2.406,0.142 -5.655,0.334 -8.064,0.476 -0.872,0.051 -1.727,-0.248 -2.378,-0.832 -0.65,-0.585 -1.039,-1.405 -1.08,-2.278 -0.088,-1.827 1.313,-3.386 3.139,-3.493 2.407,-0.143 5.656,-0.334 8.064,-0.477 0.872,-0.052 1.729,0.248 2.38,0.833 0.651,0.584 1.038,1.404 1.08,2.276 z"
         style="fill:#2c1d17;fill-opacity:1;fill-rule:evenodd;stroke:none"
         id="path190" /><path
         d="m 259.065,430.716 c 1.737,0 3.147,-1.572 3.147,-3.507 0,-1.937 -1.41,-3.507 -3.147,-3.507 -1.734,0 -3.143,1.57 -3.143,3.507 0,1.935 1.409,3.507 3.143,3.507"
         style="fill:#2c1d17;fill-opacity:1;fill-rule:evenodd;stroke:none"
         id="path192" /><path
         d="m 256.608,420.195 c 0,1.936 -1.569,3.507 -3.505,3.507 -1.938,0 -3.506,-1.571 -3.506,-3.507 v -2.903 c 0,-1.938 1.568,-3.506 3.506,-3.506 1.936,0 3.505,1.568 3.505,3.506 z"
         style="fill:#2c1d17;fill-opacity:1;fill-rule:evenodd;stroke:none"
         id="path194" /><path
         d="m 232.082,428.103 c -0.063,1.854 1.339,3.431 3.188,3.584 1.238,0.102 2.644,0.219 3.88,0.321 0.856,0.071 1.704,-0.212 2.345,-0.784 0.642,-0.571 1.022,-1.38 1.051,-2.239 0.062,-1.853 -1.339,-3.43 -3.189,-3.582 -1.237,-0.104 -2.643,-0.22 -3.879,-0.321 -0.856,-0.071 -1.705,0.211 -2.346,0.782 -0.642,0.572 -1.021,1.381 -1.05,2.239"
         style="fill:#2c1d17;fill-opacity:1;fill-rule:evenodd;stroke:none"
         id="path196" /><path
         d="m 234.274,430.93 c -1.238,0 -2.243,-1.571 -2.243,-3.507 0,-1.936 1.005,-3.506 2.243,-3.506 1.24,0 2.245,1.57 2.245,3.506 0,1.936 -1.005,3.507 -2.245,3.507"
         style="fill:#2c1d17;fill-opacity:1;fill-rule:evenodd;stroke:none"
         id="path198" /><path
         d="m 236.028,421.938 c 0,1.382 1.12,2.502 2.503,2.502 1.383,0 2.503,-1.12 2.503,-2.502 v -4.912 c 0,-1.382 -1.12,-2.502 -2.503,-2.502 -1.383,0 -2.503,1.12 -2.503,2.502 z"
         style="fill:#2c1d17;fill-opacity:1;fill-rule:evenodd;stroke:none"
         id="path200" /></g></g></svg>
